<?xml version="1.0" encoding="UTF-8" standalone="no"?>
<svg xmlns="http://www.w3.org/2000/svg" xml:space="preserve" width="114.8625" height="114.8625">
  <path fill="#fff" d="M112.692875 52.3185 62.544 2.171625c-2.88675-2.88875-7.570875-2.88875-10.4615 0l-10.412625 10.4145 13.209 13.2095C57.94925 24.759 61.46975 25.45475 63.916 27.9015c2.461 2.462 3.150375 6.01275 2.087375 9.09375l12.732 12.7305c3.081-1.062 6.63325-.3755 9.09425 2.088875 3.4375 3.4365 3.4375 9.007375 0 12.44675-3.44 3.4395-9.00975 3.4395-12.45125 0-2.585375-2.587875-3.225-6.387125-1.914-9.57275l-11.875-11.874V74.06075c.837375.415 1.628375.96775 2.326625 1.664 3.4375 3.437125 3.4375 9.007375 0 12.44975-3.4375 3.436-9.01125 3.436-12.44625 0-3.4375-3.442375-3.4375-9.012625 0-12.44975.849625-.848625 1.8335-1.490625 2.88325-1.920375V42.26925c-1.04975-.42975-2.03125-1.066375-2.88325-1.920875-2.6035-2.602625-3.23-6.424375-1.8945-9.622125l-13.0225-13.024375-34.387225 34.38425c-2.88818125 2.891125-2.88818125 7.57525 0 10.463875l50.15135 50.146975c2.88725 2.88818125 7.569875 2.88818125 10.4615 0l49.9145-49.9146c2.889125-2.889125 2.889125-7.575625 0-10.463875"/>
</svg>